inDegrees=yes
name=ik_MT_2026-09-08_17h41_01210270-000-000_orientations
DataType=double
version=3
OpenSimVersion=4.5
endheader
time	pelvis_tilt	pelvis_list	pelvis_rotation	pelvis_tx	pelvis_ty	pelvis_tz	hip_flexion_r	hip_adduction_r	hip_rotation_r	knee_angle_r	knee_angle_r_beta	ankle_angle_r	subtalar_angle_r	mtp_angle_r	hip_flexion_l	hip_adduction_l	hip_rotation_l	knee_angle_l	knee_angle_l_beta	ankle_angle_l	subtalar_angle_l	mtp_angle_l	lumbar_extension	lumbar_bending	lumbar_rotation	arm_flex_r	arm_add_r	arm_rot_r	elbow_flex_r	pro_sup_r	wrist_flex_r	wrist_dev_r	arm_flex_l	arm_add_l	arm_rot_l	elbow_flex_l	pro_sup_l	wrist_flex_l	wrist_dev_l
85.375	4.073897848282557	2.205829544202377	-1829.475582609719	0	0.9399999999999999	0	7.457426006190259	4.01052454626579	-44.62353761162733	-29.16228001531058	-0.5089778036557119	-2.229285222903482	0	0	1.896108889910312	-3.791579685676978	35.71906200382841	14.09364298387384	0.2459804736691966	-13.9878292248648	0	0	-6.066734898697308	-5.989974225674523	-46.90900650288761	-11.43398843809478	-5.093147746094975	19.12970678803601	3.104741717594244	45.00000025534018	0	0	22.44778980403528	-10.23460737857944	-12.84500424661885	3.861832098285879	45.00000025534018	0	0
85.40000000000001	4.410095709335985	1.908630614197494	-1829.324701236911	0	0.9399999999999999	0	5.64921517954428	2.772676482657355	-44.73736240238747	-30.04238790266898	-0.5243385840628875	-7.712583288956404	0	0	5.370281704122049	-3.65338622109003	36.23733207668504	19.82394264440621	0.3459930698713997	-25.56279598219254	0	0	-5.841371486647073	-5.687425029191744	-47.3487057199897	-11.50134004352286	-4.101943377918874	18.01492905599944	2.164763768831542	45.00000025534018	0	0	21.19577663545986	-9.473942047106682	-11.72885917589055	4.163418028917173	45.00000025534018	0	0
85.425	5.172573551343932	0.804526361585593	-1829.317739464934	0	0.9399999999999999	0	4.496873788285269	3.37467894647511	-44.7683846808472	-28.02054518726168	-0.4890507717215674	-10.38771081235416	0	0	8.011912537873863	-3.287943114506288	38.02299901470358	26.28984351753405	0.4588443292150567	-32.78848077444753	0	0	-6.223549136850154	-5.09697207777816	-47.57837294303845	-11.47985466907044	-3.38517569640278	16.68228608791902	1.240843727241032	45.00000025534018	0	0	19.46567557408969	-8.859838696935352	-10.89607384233575	3.944031222888656	45.00000025534018	0	0
85.45	5.526972809848044	-1.269909363012202	-1830.260614834928	0	0.9399999999999999	0	2.784479657163825	5.156383736263658	-42.77773776969768	-26.17212871518201	-0.4567898183356793	-11.66576305431294	0	0	9.518400693564363	-3.627828515143561	38.82323076961166	32.64051279553198	0.5696844178213717	-35.77304974469249	0	0	-6.499435001518908	-3.479804033196505	-47.12288713135218	-11.03282590593838	-3.600329491820594	15.68866463305707	0.8935706867919373	45.00000025534018	0	0	17.48627877394332	-8.048841254035111	-11.21657308838005	3.183024868126801	45.00000025534018	0	0
85.47499999999999	1.552681282221869	-0.6895263570396454	-1832.679551402455	0	0.9399999999999999	0	5.45770218811982	8.086541031148132	-41.33429847969975	-25.10637596355766	-0.438188923807645	-10.85928689122795	0	0	16.3387128514051	-4.42572040981576	38.7541232749379	39.27127038066255	0.6854129695834884	-42.1708997972855	0	0	-1.840909224685217	-1.621322187782009	-45.35355289778144	-9.820038071476599	-4.356187555610572	14.97351405370988	0.9417122063326795	45.00000025534018	0	0	15.37354901065189	-6.797176042010321	-12.08160840445423	2.39185156382853	45.00000025534018	0	0
85.5	-0.195120289213655	-0.1317270349614859	-1834.549637431714	0	0.9399999999999999	0	5.758312840523375	9.71139812038961	-41.41383466951405	-24.37655985727827	-0.4254512298189848	-10.06634103636759	0	0	20.83026160170335	-3.11729744947151	39.61470117221779	45.94265109446183	0.8018505286933353	-43.77992330928603	0	0	0.1603876722078856	-0.1785332079955026	-44.17736248472728	-7.614315322348223	-5.427708771683004	14.84044402741288	1.631938016265441	45.00000025534018	0	0	13.74132299556114	-5.536774793639172	-13.09272547987733	1.975525487248014	45.00000025534018	0	0
85.52500000000001	2.013137950660992	-1.307804425322092	-1835.525531625003	0	0.9399999999999999	0	2.166401321061032	10.06763915184632	-42.31870671915321	-23.67284726368787	-0.4131691280730837	-9.989761650330085	0	0	19.97629030052168	0.03896965117488568	39.51702803286549	52.66598906220301	0.9191949129547632	-37.36435931249487	0	0	-2.09808159974988	0.0652918539016844	-43.78129466819339	-5.888048789165154	-6.823031387127964	15.02214434746768	3.250933785188241	45.00000025534018	0	0	11.86548749897637	-4.539987551291238	-13.99251522432315	1.66455519753191	45.00000025534018	0	0
85.55	2.492279315418496	-1.088135252787889	-1836.493697964066	0	0.9399999999999999	0	0.8721309182706926	10.63887393703383	-41.80210554047621	-23.38628557558911	-0.4081676831056872	-9.277115961027619	0	0	21.25201879240833	3.591290770640756	40.09498562041194	60.03376918547178	1.047786934668797	-28.01734886787923	0	0	-1.905666446498252	-0.1877746546242094	-43.54746429282832	-4.646155761709998	-8.62163729995471	15.43977743660999	5.435241179559165	45.00000025534018	0	0	9.75479549562235	-3.745489535424424	-14.81570970365852	1.279277381350014	45.00000025534018	0	0
85.575	2.573866476191357	-1.488945195335273	-1837.399630902787	0	0.9399999999999999	0	-0.6785392572303056	12.1438765226681	-39.60149325449394	-23.71528721994759	-0.4139098450442181	-8.251345813149367	0	0	22.37021307882668	6.87069320202102	41.39953400603792	66.98335346472764	1.169080061986649	-18.65665774736496	0	0	-1.551332927127259	-0.1015482174147087	-43.49731443390184	-3.67746241514429	-10.53805655586071	15.83085664724862	7.640091070068348	45.00000025534018	0	0	7.291715694776388	-3.246831778020046	-15.25016299356751	0.7520424681553873	45.00000025534018	0	0
85.59999999999999	3.304312528387296	-3.31400490880672	-1837.899300819359	0	0.9399999999999999	0	-3.650027284540557	14.0759296082138	-37.84284963701835	-24.2096525783116	-0.4225381482554719	-7.427853945049668	0	0	22.0648289221986	9.600151226040531	43.39817742557202	72.58530825529179	1.266852617629863	-9.153573591466671	0	0	-2.887434015366003	0.6612650542035083	-43.69090718077318	-2.139439068574278	-12.13278446335073	15.72730408389403	9.466008553514243	45.00000025534018	0	0	5.069440299099369	-3.181008539289893	-15.0160273149099	0.343319601405726	45.00000025534018	0	0
85.625	2.905442871228996	-4.693297824822775	-1838.420266877745	0	0.9399999999999999	0	-5.453989323472459	16.5106781886072	-37.02329856387242	-24.75426481029956	-0.4320434248502969	-6.638004616593101	0	0	22.35888565354333	11.88517744186233	45.17468996206878	76.29866930654194	1.331662994289496	0.4842674838581292	0	0	-3.513834024395013	1.944341477214165	-43.8586091594743	0.1020511380217989	-13.4265009213685	15.21383825945183	11.17327380540705	45.00000025534018	0	0	3.229356722892931	-3.30184753514834	-14.70760081945437	0.1929923076229929	45.00000025534018	0	0
85.65000000000001	1.158649451603753	-4.461296095776326	-1839.635149605061	0	0.9399999999999999	0	-5.40633978227299	18.50811050845283	-35.57285616845095	-25.30900819892412	-0.4417255234854658	-5.835985505561171	0	0	24.85395984760497	13.20071166927973	45.83900466259364	77.90877452533653	1.359764631661005	9.258472289557172	0	0	-2.76616748994936	3.293654268392926	-43.50887280198339	3.26795034357125	-14.54601893823264	14.59873085679264	12.94793938358222	45.00000025534018	0	0	2.177036657008348	-3.513514782494731	-14.87387886862611	0.1315676184203325	45.00000025534018	0	0
